<?xml version="1.0" encoding="UTF-8"?>
<svg width="36px" height="36px" viewBox="0 0 36 36" version="1.1" xmlns="http://www.w3.org/2000/svg" xmlns:xlink="http://www.w3.org/1999/xlink">
    <title>切片</title>
    <g id="主页面" stroke="none" stroke-width="1" fill="none" fill-rule="evenodd">
        <g id="切图-币种备份-2" transform="translate(-307.000000, -367.000000)" fill-rule="nonzero">
            <g id="XRP-(XRP)" transform="translate(307.000000, 367.000000)">
                <path d="M35.4572288,22.354233 C33.053333,31.9971115 23.2865427,37.8657159 13.642469,35.4612014 C4.00257888,33.0570068 -1.86599045,23.2896365 0.539086565,13.647637 C2.94208233,4.00356325 12.7088585,-1.86532248 22.349944,0.53855922 C31.9931388,2.94275381 37.8614269,12.7110382 35.4572288,22.3545143 L35.4572288,22.354233 Z" id="路径" fill="#000000"></path>
                <path d="M24.3632092,10.5 L26.964774,10.5 L21.5506407,15.8606521 C19.5900085,17.8008739 16.4110893,17.8008739 14.4493844,15.8606521 L9.03288435,10.5 L11.6363879,10.5 L15.7497514,14.5720943 C16.996821,15.8011153 18.9995608,15.8011153 20.246648,14.5720943 L24.3632344,10.5 L24.3632092,10.5 Z M11.6033021,25.4061772 L9,25.4061772 L14.4491578,20.0124393 C16.40979,18.0722176 19.5887093,18.0722176 21.5506156,20.0124393 L27,25.4061772 L24.3984352,25.4061772 L20.2500472,21.3009971 C19.0029776,20.0719761 17.0002378,20.0719761 15.7529491,21.3009971 L11.6035036,25.4061772 L11.6033021,25.4061772 Z" id="形状" fill="#FFFFFF"></path>
            </g>
        </g>
    </g>
</svg>