<?xml version="1.0" encoding="UTF-8"?>
<svg width="24px" height="25px" viewBox="0 0 24 25" version="1.1" xmlns="http://www.w3.org/2000/svg" xmlns:xlink="http://www.w3.org/1999/xlink">
    <title>切片</title>
    <g id="页面-1" stroke="none" stroke-width="1" fill="none" fill-rule="evenodd">
        <g id="我的-弹窗3" transform="translate(-15.000000, -595.000000)" fill-rule="nonzero">
            <g id="底部弹窗-2子类" transform="translate(0.000000, 451.000000)">
                <g id="5反馈/对话框/子组件-已选备份-2" transform="translate(0.000000, 131.000000)">
                    <g id="btc" transform="translate(15.000000, 13.260000)">
                        <path d="M0,12.2400142 L0,12.2400161 C0,19.0000018 5.37258438,24.4800303 12.000014,24.4800303 C18.6274436,24.4800303 24.0000279,19.0000018 24.0000279,12.2400161 L24.0000279,12.2400161 C24.0000279,5.4800379 18.6274436,1.83337273e-06 12.000014,1.83337273e-06 C5.37258438,1.83337273e-06 0,5.4800379 0,12.2400161 C0,12.2400167 0,12.2400173 0,12.240018 L0,12.2400142 Z" id="路径" fill="#F7931A"></path>
                        <path d="M17.3916765,10.7254559 C17.6264502,9.12201405 16.4301051,8.25988196 14.7933922,7.68460129 L15.3240178,5.51226173 L14.0275007,5.18230728 L13.510961,7.29770209 L13.5109656,7.29770322 C13.1655784,7.21122513 12.819364,7.12821488 12.4723737,7.04868348 L12.9930384,4.91999678 L11.6968728,4.59000408 L11.165755,6.76126786 L11.1657537,6.76126756 C10.8891252,6.69804812 10.6131132,6.63206369 10.3377527,6.56332358 L10.339323,6.55639075 L8.55183658,6.10085663 L8.20695337,7.51323952 C8.20695337,7.51323952 9.1685248,7.73834104 9.14820446,7.75218277 C9.67358008,7.88577105 9.76800987,8.24018162 9.7523536,8.52117601 L9.14714978,10.9957865 C9.18366544,11.0053491 9.23061081,11.0186649 9.28278275,11.0399653 L9.14557946,11.005373 L8.29775035,14.4719506 C8.2335784,14.6348002 8.07026571,14.8785247 7.70349185,14.7859356 C7.71652311,14.8050846 6.76123294,14.5464665 6.76123294,14.5464665 L6.11740406,16.0599729 L7.80469743,16.4888754 C8.11829155,16.5686985 8.42555753,16.6527769 8.72869851,16.732074 L8.19235413,18.9294195 L9.48732439,19.258848 L10.0184422,17.0849068 L10.0184426,17.0849069 C10.3618164,17.1798846 10.7061887,17.2710684 11.0514985,17.3584425 L10.5224432,19.5222714 L11.8184447,19.8516999 L12.354789,17.6585858 C14.5654166,18.0853846 16.2276764,17.9129486 16.9278491,15.8736714 C17.4913341,14.2319078 16.8996771,13.2846454 15.736707,12.6667877 C16.5835049,12.4677679 17.2215916,11.8993961 17.3916777,10.7254306 L17.3916765,10.7254559 Z M14.429759,14.9615527 C14.029071,16.6038423 11.3186147,15.7161783 10.4400121,15.4937304 L11.1516692,12.5827346 C12.0302718,12.8062583 14.8487048,13.2495524 14.429759,14.9615527 L14.429759,14.9615527 Z M14.8309626,10.7015018 C14.4652434,12.1953095 12.2092408,11.4364286 11.4772399,11.2507007 L12.1226157,8.61058705 C12.8546165,8.79684086 15.2113302,9.14381658 14.8304469,10.7020278 L14.8309626,10.7015018 Z" id="形状" fill="#FFFFFF"></path>
                    </g>
                </g>
            </g>
        </g>
    </g>
</svg>