<?xml version="1.0" encoding="UTF-8"?>
<svg width="48px" height="55px" viewBox="0 0 48 55" version="1.1" xmlns="http://www.w3.org/2000/svg" xmlns:xlink="http://www.w3.org/1999/xlink">
    <title>编组 4备份 3</title>
    <defs>
        <path d="M1.38461538,6.11398729 C1.38461538,8.72610018 3.50289887,10.8435211 6.11547173,10.8435211 L6.11547173,10.8435211 C8.72821882,10.8435211 10.8461538,8.72610018 10.8461538,6.11398729 L10.8461538,6.11398729 C10.8461538,3.50187441 8.72821882,1.38427929 6.11547173,1.38427929 L6.11547173,1.38427929 C3.50289887,1.38427929 1.38461538,3.50187441 1.38461538,6.11398729" id="path-1"></path>
        <path d="M0.923076923,4.07599153 C0.923076923,5.81740012 2.33526591,7.22901407 4.07698115,7.22901407 L4.07698115,7.22901407 C5.81881255,7.22901407 7.23076923,5.81740012 7.23076923,4.07599153 L7.23076923,4.07599153 C7.23076923,2.33458294 5.81881255,0.92285286 4.07698115,0.92285286 L4.07698115,0.92285286 C2.33526591,0.92285286 0.923076923,2.33458294 0.923076923,4.07599153" id="path-3"></path>
    </defs>
    <g id="页面-1" stroke="none" stroke-width="1" fill="none" fill-rule="evenodd">
        <g id="意见反馈入口" transform="translate(-1856.000000, -665.000000)">
            <g id="编组-4备份-3" transform="translate(1856.000000, 666.000000)">
                <path d="M26.2800939,37.2643377 C23.9800101,42.3555802 25.6478375,48.2809152 30.3157895,51.6020612 L29.208421,52.7020626 C28.5412023,53.3758999 27.6106436,53.7580068 26.6368421,53.7580068 C25.6630406,53.7580068 24.7324819,53.3758999 24.0652631,52.7020626 L21.8968421,50.5500598 C21.3963066,50.0443323 20.6980708,49.757534 19.9673684,49.757534 C19.2366661,49.757534 18.5384303,50.0443323 18.0378948,50.5500598 L15.8989473,52.6700626 C15.2321004,53.3437929 14.3018858,53.7258628 13.328421,53.7258628 C12.3549562,53.7258628 11.4247417,53.3437929 10.7578947,52.6700626 L8.61894731,50.5500598 C8.11846906,50.0449776 7.42069467,49.758597 6.69052629,49.758597 C5.96035791,49.758597 5.26258351,50.0449776 4.76210527,50.5500598 L1.55157888,53.734064 C0.978947271,54.3020648 0,53.9000643 0,53.0960632 L0,9.60600484 C0,7.61400217 1.62736846,6 3.63578941,6 L36.3642105,6 C38.3726315,6 40,7.61400217 40,9.60600484 L40,30.1660324 C34.2501881,29.2395865 28.5801778,32.1730953 26.2800939,37.2643377 Z" id="路径备份" fill="#586EB1" fill-rule="nonzero"></path>
                <path d="M18.1598657,8.3226584 L18.1598657,25.9057335 C17.5813533,25.9677169 16.9938017,26 16.3985021,26 C7.34202824,26 0,18.6579718 0,9.60149793 C0,8.36398072 0.138171488,7.15874656 0.397727273,6 L15.8372073,6 C17.1199208,6 18.1598657,7.0399449 18.1598657,8.3226584 Z" id="路径备份-17" fill="#6378B7" fill-rule="nonzero" transform="translate(9.079933, 16.000000) scale(-1, 1) translate(-9.079933, -16.000000) "></path>
                <g id="编组-4备份" transform="translate(28.000000, 32.000000)" fill-rule="nonzero">
                    <path d="M0,10 C-0.000345943239,13.5725406 1.90556763,16.8738522 4.99972047,18.6602224 C8.09387331,20.4465925 11.9061267,20.4465925 15.0002795,18.6602224 C18.0944324,16.8738522 20.0003459,13.5725406 20,10 C20.0003459,6.42745941 18.0944324,3.12614777 15.0002795,1.33977762 C11.9061267,-0.446592539 8.09387331,-0.446592539 4.99972047,1.33977762 C1.90556763,3.12614777 -0.000345943255,6.42745941 0,10 L0,10 Z" id="路径" fill="#2E4A9D"></path>
                    <g id="Icon/icon-向右箭头-灰" transform="translate(4.000000, 4.000000)" fill="#FFFFFF">
                        <path d="M1.71966991,3.21966991 C1.99003289,2.94930694 2.41545618,2.92850979 2.70967458,3.15727846 L2.78033009,3.21966991 L6.75,7.18875 L10.7196699,3.21966991 C10.9900329,2.94930694 11.4154562,2.92850979 11.7096746,3.15727846 L11.7803301,3.21966991 C12.0506931,3.49003289 12.0714902,3.91545618 11.8427215,4.20967458 L11.7803301,4.28033009 L7.28033009,8.78033009 C7.00996711,9.05069306 6.58454382,9.07149021 6.29032542,8.84272154 L6.21966991,8.78033009 L1.71966991,4.28033009 C1.4267767,3.98743687 1.4267767,3.51256313 1.71966991,3.21966991 Z" id="路径-2" transform="translate(6.750000, 6.000000) rotate(-90.000000) translate(-6.750000, -6.000000) "></path>
                    </g>
                </g>
                <g id="编组-7" transform="translate(6.000000, 14.000000)" fill="#FFFFFF">
                    <rect id="矩形备份-3" x="7" y="7" width="20" height="2" rx="1"></rect>
                    <rect id="矩形备份-5" x="7" y="0" width="20" height="2" rx="1"></rect>
                    <circle id="椭圆形" cx="1.5" cy="1.5" r="1.5"></circle>
                    <circle id="椭圆形备份" cx="1.5" cy="8.5" r="1.5"></circle>
                    <circle id="椭圆形备份-6" cx="1.5" cy="15.5" r="1.5"></circle>
                    <rect id="矩形备份-4" x="7" y="14" width="12" height="2" rx="1"></rect>
                </g>
                <g id="编组-6" transform="translate(26.000000, 1.000000)">
                    <g id="编组-3备份-2" transform="translate(9.000000, 8.000000)">
                        <path d="M6,11.9970872 C2.68620896,11.9970872 0,9.31153027 0,5.99854359 C0,2.68555692 2.68620896,0 6,0 C9.31379104,0 12,2.68555692 12,5.99854359 C12,9.31153027 9.31379104,11.9970872 6,11.9970872 Z" id="Fill-37" fill="#FFB948"></path>
                        <mask id="mask-2" fill="white">
                            <use xlink:href="#path-1"></use>
                        </mask>
                        <g id="Clip-40"></g>
                        <path d="M6.00008499,10.6128079 C8.54910654,10.6128079 10.6153846,8.54703138 10.6153846,5.99862856 C10.6153846,3.45022575 8.54910654,1.38427929 6.00008499,1.38427929 C3.45123342,1.38427929 1.38461538,3.45022575 1.38461538,5.99862856 C1.38461538,8.54703138 3.45123342,10.6128079 6.00008499,10.6128079 Z" id="Fill-39" fill="#FEA600" mask="url(#mask-2)"></path>
                        <path d="M5.75237629,7.97283926 L4.02522499,6.2461072 C3.88902757,6.10994284 3.88902757,5.88714435 4.02522499,5.75097999 L5.75237629,4.02424792 C5.88857371,3.88808357 6.11142629,3.88808357 6.24744865,4.02424792 L7.97477501,5.75097999 C8.11097243,5.88714435 8.11097243,6.10994284 7.97477501,6.2461072 L6.24744865,7.97283926 C6.11142629,8.10900362 5.88857371,8.10900362 5.75237629,7.97283926" id="Fill-41" fill="#FEE596" mask="url(#mask-2)"></path>
                    </g>
                    <g id="编组-3备份-3">
                        <path d="M4,7.99805812 C1.79080597,7.99805812 0,6.20768684 0,3.99902906 C0,1.79037128 1.79080597,0 4,0 C6.20919403,0 8,1.79037128 8,3.99902906 C8,6.20768684 6.20919403,7.99805812 4,7.99805812 Z" id="Fill-37" fill="#FFB948"></path>
                        <mask id="mask-4" fill="white">
                            <use xlink:href="#path-3"></use>
                        </mask>
                        <g id="Clip-40"></g>
                        <path d="M4.00005666,7.07520526 C5.69940436,7.07520526 7.07692308,5.69802092 7.07692308,3.99908571 C7.07692308,2.3001505 5.69940436,0.92285286 4.00005666,0.92285286 C2.30082228,0.92285286 0.923076923,2.3001505 0.923076923,3.99908571 C0.923076923,5.69802092 2.30082228,7.07520526 4.00005666,7.07520526 Z" id="Fill-39" fill="#FEA600" mask="url(#mask-4)"></path>
                        <path d="M3.83491753,5.31522617 L2.68348332,4.16407146 C2.59268505,4.07329523 2.59268505,3.9247629 2.68348332,3.83398666 L3.83491753,2.68283195 C3.9257158,2.59205571 4.0742842,2.59205571 4.16496577,2.68283195 L5.31651668,3.83398666 C5.40731495,3.9247629 5.40731495,4.07329523 5.31651668,4.16407146 L4.16496577,5.31522617 C4.0742842,5.40600241 3.9257158,5.40600241 3.83491753,5.31522617" id="Fill-41" fill="#FEE596" mask="url(#mask-4)"></path>
                    </g>
                </g>
                <path d="M6.71350451,8.45160459 C5.02082128,7.86876701 3.68705458,6.50197314 2.7122044,4.35122298" id="路径-3备份-2" stroke="#FEA600" stroke-width="2" transform="translate(4.712854, 6.401414) rotate(2.000000) translate(-4.712854, -6.401414) "></path>
                <path d="M15.1730923,2.41349963 C17.4244604,3.88835867 19.2098188,3.56732347 20.5291674,1.45039404" id="路径-3备份-4" stroke="#C3D1F8" stroke-width="2" transform="translate(17.851130, 2.386151) rotate(-38.000000) translate(-17.851130, -2.386151) "></path>
                <path d="M38.3423757,26.7340657 C40.2274483,28.2641027 42.1364871,27.5121703 44.0694923,24.4782684" id="路径-3备份-5" stroke="#C3D1F8" stroke-width="2" transform="translate(41.205934, 25.990870) rotate(46.000000) translate(-41.205934, -25.990870) "></path>
            </g>
        </g>
    </g>
</svg>