<svg width="176" height="174" viewBox="0 0 176 174" fill="none" xmlns="http://www.w3.org/2000/svg">
<path d="M72.0883 145.117C111.891 145.117 144.159 112.849 144.159 72.9043C144.159 32.9598 111.891 0.691406 72.0883 0.691406C32.2859 0.691406 0.0175781 32.9598 0.0175781 72.9043C0.0175781 112.849 32.2859 145.117 72.0883 145.117Z" fill="#EAEEF9"/>
<path d="M116.725 30.8261V90.1032C116.725 93.657 113.74 96.6422 110.186 96.6422H12.1015C8.54768 96.6422 5.5625 93.7991 5.5625 90.1032V30.8261C5.5625 27.2723 8.54768 24.2871 12.1015 24.2871H110.186C113.74 24.2871 116.725 27.2723 116.725 30.8261Z" fill="#D5DDEA"/>
<path opacity="0.3" d="M116.725 50.5859V90.104C116.725 93.6578 113.74 96.643 110.186 96.643H28.0225V57.1249C28.0225 53.5711 30.8655 50.5859 34.5614 50.5859H116.725Z" fill="#989FB0"/>
<g filter="url(#filter0_d_877_5745)">
<path d="M134.211 126.496H43.0922C37.5483 126.496 33.1416 122.089 33.1416 116.545V64.0912C33.1416 58.5473 37.5483 54.1406 43.0922 54.1406H134.211C139.755 54.1406 144.162 58.5473 144.162 64.0912V116.545C144.162 122.089 139.755 126.496 134.211 126.496Z" fill="url(#paint0_linear_877_5745)"/>
</g>
<path d="M61.2875 110.148H46.7881C45.5087 110.148 44.5137 109.153 44.5137 107.874C44.5137 106.595 45.5087 105.6 46.7881 105.6H61.2875C62.5669 105.6 63.562 106.595 63.562 107.874C63.562 109.153 62.5669 110.148 61.2875 110.148Z" fill="#D5DDEA"/>
<path d="M84.7426 110.148H70.2432C68.9638 110.148 67.9688 109.153 67.9688 107.874C67.9688 106.595 68.9638 105.6 70.2432 105.6H84.7426C86.022 105.6 87.017 106.595 87.017 107.874C87.017 109.153 86.022 110.148 84.7426 110.148Z" fill="#D5DDEA"/>
<path d="M108.198 110.148H93.6982C92.4189 110.148 91.4238 109.153 91.4238 107.874C91.4238 106.595 92.4189 105.6 93.6982 105.6H108.198C109.477 105.6 110.472 106.595 110.472 107.874C110.472 109.153 109.477 110.148 108.198 110.148Z" fill="#D5DDEA"/>
<path d="M131.652 110.148H117.152C115.873 110.148 114.878 109.153 114.878 107.874C114.878 106.595 115.873 105.6 117.152 105.6H131.652C132.931 105.6 133.926 106.595 133.926 107.874C133.926 109.153 132.931 110.148 131.652 110.148Z" fill="#D5DDEA"/>
<path d="M126.39 82.855C131.101 82.855 134.919 79.0364 134.919 74.326C134.919 69.6155 131.101 65.7969 126.39 65.7969C121.68 65.7969 117.861 69.6155 117.861 74.326C117.861 79.0364 121.68 82.855 126.39 82.855Z" fill="#989FB0"/>
<path d="M115.16 82.855C119.87 82.855 123.689 79.0364 123.689 74.326C123.689 69.6155 119.87 65.7969 115.16 65.7969C110.449 65.7969 106.631 69.6155 106.631 74.326C106.631 79.0364 110.449 82.855 115.16 82.855Z" fill="#D5DDEA"/>
<path d="M116.724 36.3711H5.7041V50.3019H116.724V36.3711Z" fill="#989FB0"/>
<path d="M62.564 85.5561H46.643C45.5058 85.5561 44.5107 84.561 44.5107 83.4238V73.1889C44.5107 72.0517 45.5058 71.0566 46.643 71.0566H62.4218C63.559 71.0566 64.5541 72.0517 64.5541 73.1889V83.4238C64.6962 84.561 63.7012 85.5561 62.564 85.5561Z" fill="#D5DDEA"/>
<defs>
<filter id="filter0_d_877_5745" x="1.86831" y="38.504" width="173.567" height="134.902" filterUnits="userSpaceOnUse" color-interpolation-filters="sRGB">
<feFlood flood-opacity="0" result="BackgroundImageFix"/>
<feColorMatrix in="SourceAlpha" type="matrix" values="0 0 0 0 0 0 0 0 0 0 0 0 0 0 0 0 0 0 127 0" result="hardAlpha"/>
<feOffset dy="15.6366"/>
<feGaussianBlur stdDeviation="15.6366"/>
<feColorMatrix type="matrix" values="0 0 0 0 0.397708 0 0 0 0 0.47749 0 0 0 0 0.575 0 0 0 0.27 0"/>
<feBlend mode="normal" in2="BackgroundImageFix" result="effect1_dropShadow_877_5745"/>
<feBlend mode="normal" in="SourceGraphic" in2="effect1_dropShadow_877_5745" result="shape"/>
</filter>
<linearGradient id="paint0_linear_877_5745" x1="88.6155" y1="52.467" x2="88.6155" y2="127.276" gradientUnits="userSpaceOnUse">
<stop stop-color="#FDFEFF"/>
<stop offset="0.9964" stop-color="#ECF0F5"/>
</linearGradient>
</defs>
</svg>
