<?xml version="1.0" standalone="no"?><!DOCTYPE svg PUBLIC "-//W3C//DTD SVG 1.1//EN" "http://www.w3.org/Graphics/SVG/1.1/DTD/svg11.dtd"><svg t="1719386032655" class="icon" viewBox="0 0 1024 1024" version="1.1" xmlns="http://www.w3.org/2000/svg" p-id="2001" xmlns:xlink="http://www.w3.org/1999/xlink" width="200" height="200"><path d="M512 176c185.6 0 336 150.4 336 336s-150.4 336-336 336-336-150.4-336-336 150.4-336 336-336z m79.296 368.016h-158.592c3.088 69.712 16.16 133.344 36.304 180.368 10.08 23.52 21.28 41.184 31.904 51.664 6.368 6.288 9.856 7.952 11.088 7.952 1.232 0 4.72-1.664 11.088-7.952 10.624-10.48 21.824-28.128 31.904-51.68 20.16-47.008 33.216-110.64 36.304-180.352z m-222.656 0h-126.784c12.112 103.28 82.08 188.864 176.608 223.488C390.848 712.384 372.256 633.28 368.64 544z m413.504 0H655.36c-3.616 89.264-22.208 168.368-49.84 223.488 94.56-34.624 164.512-120.208 176.624-223.488zM418.48 256.48l-4.448 1.68C321.76 293.808 253.776 378.336 241.872 480h126.768c3.616-89.28 22.208-168.384 49.84-223.52zM512 240c-1.232 0-4.72 1.664-11.088 7.952-10.624 10.48-21.824 28.128-31.904 51.68-20.16 47.008-33.216 110.656-36.304 180.368h158.592c-3.088-69.712-16.16-133.36-36.304-180.384-10.08-23.52-21.28-41.184-31.904-51.664-5.728-5.664-9.12-7.568-10.656-7.904L512 240z m93.536 16.496l0.576 1.184c27.312 55.072 45.664 133.696 49.248 222.336h126.784c-12.112-103.312-82.064-188.896-176.608-223.52z" fill="#748187" p-id="2002"></path></svg>