<?xml version="1.0" encoding="UTF-8"?>
<svg width="36px" height="36px" viewBox="0 0 36 36" version="1.1" xmlns="http://www.w3.org/2000/svg" xmlns:xlink="http://www.w3.org/1999/xlink">
    <title>切片</title>
    <g id="主页面" stroke="none" stroke-width="1" fill="none" fill-rule="evenodd">
        <g id="切图-币种备份-2" transform="translate(-83.000000, -231.000000)" fill-rule="nonzero">
            <g id="eth" transform="translate(83.000000, 231.000000)">
                <path d="M18.0000209,0 C8.16002121,0 0,8.16002121 0,18.0000209 C0,27.8400207 8.16002121,36.0000419 18.0000209,36.0000419 C27.8400207,36.0000419 36.0000419,27.8400207 36.0000419,18.0000209 C36.0000419,8.16002121 27.8400207,0 18.0000209,0 Z" id="路径" fill="#D8D8D8"></path>
                <polygon id="路径" fill="#333333" points="18.0000209 3.1200048 18.0000209 14.1600294 27.1200198 18.2400224"></polygon>
                <polygon id="路径" fill="#8C8C8C" points="18.0000209 3.1200048 18.0000209 14.1600294 8.88002205 18.2400224"></polygon>
                <polygon id="路径" fill="#383838" points="18.0000209 14.1600048 27.1200198 18.2399978 18.0000209 23.7599925 8.88002205 18.2399978"></polygon>
                <polygon id="路径" fill="#8C8C8C" points="8.88002205 19.6800346 18.0000209 33.1200385 18.0000209 25.2000293"></polygon>
                <polygon id="路径" fill="#333333" points="27.1200198 19.6800346 18.0000209 33.1200385 18.0000209 25.2000293"></polygon>
                <polygon id="路径" fill="#141414" points="18.0000209 14.1600048 27.3600318 18.2399978 18.0000209 23.7599925"></polygon>
            </g>
        </g>
    </g>
</svg>