<?xml version="1.0" encoding="UTF-8"?>
<svg width="24px" height="24px" viewBox="0 0 24 24" version="1.1" xmlns="http://www.w3.org/2000/svg" xmlns:xlink="http://www.w3.org/1999/xlink">
    <title>切片</title>
    <g id="页面-1" stroke="none" stroke-width="1" fill="none" fill-rule="evenodd">
        <g id="我的-弹窗3" transform="translate(-15.000000, -545.000000)" fill-rule="nonzero">
            <g id="底部弹窗-2子类" transform="translate(0.000000, 451.000000)">
                <g id="5反馈/对话框/子组件-已选备份-2" transform="translate(0.000000, 81.000000)">
                    <g id="USDT" transform="translate(15.000000, 13.000000)">
                        <path d="M0,12.000014 L0,12.0000158 C0,18.6274454 5.37258438,24.0000297 12.000014,24.0000297 C18.6274436,24.0000297 24.0000279,18.6274454 24.0000279,12.0000158 L24.0000279,12.0000158 C24.0000279,5.37258619 18.6274436,1.81195054e-06 12.000014,1.81195054e-06 C5.37258438,1.81195054e-06 0,5.37258619 0,12.0000158 L0,12.000014 Z" id="路径" fill="#1BA27A"></path>
                        <path d="M17.6280205,6.04800704 L17.6280205,8.79601024 L13.3200155,8.79601024 L13.320959,10.6116077 C16.6845654,10.7515269 19.2240224,11.4072301 19.2240224,12.2040142 C19.2240224,12.9960151 16.6800194,13.6560159 13.3200155,13.8000161 L13.3200155,13.8000161 L13.3200155,19.5840228 L10.5840123,19.5840228 L10.5840123,13.8000161 C7.24800843,13.6560159 4.7280055,12.9960151 4.7280055,12.2040142 C4.7280055,11.4215021 7.24394791,10.760128 10.5842948,10.6140366 L10.5840123,8.79601024 L6.26400729,8.79601024 L6.26400729,6.04800704 L17.6280205,6.04800704 Z M13.3206423,10.7673934 L13.3200155,12.8280149 L10.5840123,12.8280149 L10.5845465,10.7693666 C7.68874256,10.8935672 5.52000642,11.3972966 5.52000642,12.000014 C5.52000642,12.6960148 8.41200979,13.2600154 11.9760139,13.2600154 C15.5400181,13.2600154 18.4320214,12.6960148 18.4320214,12.000014 C18.4320214,11.3940514 16.239868,10.8881455 13.3206423,10.7673934 Z" id="形状结合" fill="#FFFFFF"></path>
                    </g>
                </g>
            </g>
        </g>
    </g>
</svg>